<svg width="125" height="20" viewBox="0 0 125 20" fill="none" xmlns="http://www.w3.org/2000/svg">
<path d="M11.25 6.875V4.375C11.25 3.685 11.81 3.125 12.5 3.125H13.75V0H11.25C9.17875 0 7.5 1.67875 7.5 3.75V6.875H5V10H7.5V20H11.25V10H13.75L15 6.875H11.25Z" fill="#635854"/>
<g clip-path="url(#clip0_1_186)">
<path d="M48.75 0H41.25C37.7988 0 35 2.79875 35 6.25V13.75C35 17.2013 37.7988 20 41.25 20H48.75C52.2013 20 55 17.2013 55 13.75V6.25C55 2.79875 52.2013 0 48.75 0ZM53.125 13.75C53.125 16.1625 51.1625 18.125 48.75 18.125H41.25C38.8375 18.125 36.875 16.1625 36.875 13.75V6.25C36.875 3.8375 38.8375 1.875 41.25 1.875H48.75C51.1625 1.875 53.125 3.8375 53.125 6.25V13.75Z" fill="#635854"/>
<path d="M45 5C42.2387 5 40 7.23875 40 10C40 12.7613 42.2387 15 45 15C47.7613 15 50 12.7613 50 10C50 7.23875 47.7613 5 45 5ZM45 13.125C43.2775 13.125 41.875 11.7225 41.875 10C41.875 8.27625 43.2775 6.875 45 6.875C46.7225 6.875 48.125 8.27625 48.125 10C48.125 11.7225 46.7225 13.125 45 13.125Z" fill="#635854"/>
<path d="M50.375 5.29124C50.7429 5.29124 51.0412 4.99295 51.0412 4.62499C51.0412 4.25703 50.7429 3.95874 50.375 3.95874C50.007 3.95874 49.7087 4.25703 49.7087 4.62499C49.7087 4.99295 50.007 5.29124 50.375 5.29124Z" fill="#635854"/>
</g>
<g clip-path="url(#clip1_1_186)">
<path d="M90 3.79875C89.2563 4.125 88.4637 4.34125 87.6375 4.44625C88.4875 3.93875 89.1363 3.14125 89.4412 2.18C88.6488 2.6525 87.7738 2.98625 86.8412 3.1725C86.0887 2.37125 85.0162 1.875 83.8462 1.875C81.5763 1.875 79.7487 3.7175 79.7487 5.97625C79.7487 6.30125 79.7762 6.61375 79.8438 6.91125C76.435 6.745 73.4188 5.11125 71.3925 2.6225C71.0387 3.23625 70.8313 3.93875 70.8313 4.695C70.8313 6.115 71.5625 7.37375 72.6525 8.1025C71.9937 8.09 71.3475 7.89875 70.8 7.5975C70.8 7.61 70.8 7.62625 70.8 7.6425C70.8 9.635 72.2212 11.29 74.085 11.6712C73.7512 11.7625 73.3875 11.8062 73.01 11.8062C72.7475 11.8062 72.4825 11.7913 72.2337 11.7362C72.765 13.36 74.2725 14.5538 76.065 14.5925C74.67 15.6838 72.8988 16.3412 70.9813 16.3412C70.645 16.3412 70.3225 16.3263 70 16.285C71.8162 17.4563 73.9688 18.125 76.29 18.125C83.835 18.125 87.96 11.875 87.96 6.4575C87.96 6.27625 87.9538 6.10125 87.945 5.9275C88.7588 5.35 89.4425 4.62875 90 3.79875Z" fill="#635854"/>
</g>
<path d="M124.15 4.45C123.608 3.485 123.019 3.3075 121.82 3.24C120.623 3.15875 117.611 3.125 115.002 3.125C112.389 3.125 109.376 3.15875 108.18 3.23875C106.984 3.3075 106.394 3.48375 105.846 4.45C105.287 5.41375 105 7.07375 105 9.99625C105 9.99875 105 10 105 10C105 10.0025 105 10.0038 105 10.0038V10.0063C105 12.9163 105.287 14.5887 105.846 15.5425C106.394 16.5075 106.982 16.6825 108.179 16.7638C109.376 16.8338 112.389 16.875 115.002 16.875C117.611 16.875 120.622 16.8337 121.821 16.765C123.02 16.6837 123.609 16.5088 124.151 15.5438C124.715 14.59 125 12.9175 125 10.0075C125 10.0075 125 10.0038 125 10.0013C125 10.0013 125 9.99875 125 9.9975C125 7.07375 124.715 5.41375 124.15 4.45ZM112.5 13.75V6.25L118.75 10L112.5 13.75Z" fill="#635854"/>
<defs>
<clipPath id="clip0_1_186">
<rect width="20" height="20" fill="white" transform="translate(35)"/>
</clipPath>
<clipPath id="clip1_1_186">
<rect width="20" height="20" fill="white" transform="translate(70)"/>
</clipPath>
</defs>
</svg>
